# xmcd CD database file
#
# Track frame offsets:
#	150
#	16312
#	32094
#	63667
#	82131
#	106075
#	117268
#	140418
#	168121
#	191620
#	211205
#	235860
#	261071
#	273015
#	290172
#	314506
#	330844
#
# Disc length: 4762 seconds
#
# Revision: 0
# Processed by: cddbd v1.5.1PL2 Copyright (c) Steve Scherf et al.
# Submitted via: CDex 1.51
#
DISCID=ed129811
DTITLE=Diana Krall - Collaborations
DYEAR=2002
DGENRE=Jazz
TTITLE0=Better Than Anything (with Natalie Cole)
TTITLE1=Alright, Okay, You Win (with Tony Bennett) 
TTITLE2=And I Love Her (Beatles Tribute)
TTITLE3=Boy From Ipanema (with Rosemary Clooney) 
TTITLE4=Love Dance (with Geoff Keezer) 
TTITLE5=Little Boy (with Ray Brown) 
TTITLE6=Echo Of My Dreams (with Benny Carter) 
TTITLE7=Early Autumn (with Mark Whitfield) 
TTITLE8=let's get lost (with terence blanchard)
TTITLE9=The Folks Who Live on the Hill (with Dave Grusin ) 
TTITLE10=Danny Boy (with the Chieftains) 
TTITLE11=Fresh Out Of Love (with Benny Carter) 
TTITLE12=Detroit Blues (with Martien Oster) 
TTITLE13=Blue Christmas (with Celine Dion - Keyboards) 
TTITLE14=I Thought About You (with Ray Brown) 
TTITLE15=Soldier in the Rain (with Dave Grusin)
TTITLE16=La vie en Rose (with Tools Thielemans)
EXTD=YEAR: 2002
EXTT0=
EXTT1=
EXTT2=
EXTT3=
EXTT4=
EXTT5=
EXTT6=
EXTT7=
EXTT8=
EXTT9=
EXTT10=
EXTT11=
EXTT12=
EXTT13=
EXTT14=
EXTT15=
EXTT16=
PLAYORDER=
